Coordinates
version=1
nRows=60
nColumns=12
inDegrees=yes

Units are S.I. units (second, meters, Newtons, ...)
Angles are in degrees

endheader
time	SC_y	SC_z	SC_x	AC_y	AC_z	AC_x	GH_y	GH_z	GH_yy	EL_x	PS_y
       0.0              -38.15          11.62          26.84          56.11         -9.179          10.26         -3.703          75.94          102.7          50.92          119.2
   0.04568              -38.14          11.63          26.84          56.11          -9.18          10.26         -3.711          75.93          102.6          50.92          119.2
   0.09135              -38.14          11.63          26.85           56.1         -9.181          10.26         -3.721          75.93          102.6          50.92          119.2
     0.137              -38.14          11.63          26.85           56.1         -9.182          10.26          -3.73          75.92          102.6          50.92          119.2
    0.1827              -38.14          11.64          26.85           56.1         -9.183          10.26         -3.741          75.91          102.6          50.92          119.2
    0.2284              -38.13          11.64          26.85           56.1         -9.185          10.26         -3.752           75.9          102.6          50.92          119.2
    0.2741              -38.13          11.65          26.85           56.1         -9.186          10.27         -3.764          75.89          102.6          50.92          119.2
    0.3197              -38.13          11.65          26.86          56.09         -9.188          10.27         -3.777          75.88          102.6          50.92          119.2
    0.3654              -38.12          11.65          26.86          56.09         -9.189          10.27          -3.79          75.86          102.6          50.92          119.2
    0.4111              -38.12          11.66          26.86          56.09         -9.191          10.27         -3.805          75.85          102.5          50.92          119.2
    0.4568              -38.11          11.66          26.86          56.08         -9.193          10.27         -3.821          75.84          102.5          50.92          119.2
    0.5024              -38.11          11.67          26.87          56.08         -9.195          10.27         -3.838          75.82          102.5          50.92          119.1
    0.5481               -38.1          11.68          26.87          56.08         -9.197          10.27         -3.856          75.81          102.5          50.92          119.1
    0.5938               -38.1          11.68          26.87          56.07           -9.2          10.28         -3.875          75.79          102.5          50.92          119.1
    0.6395              -38.09          11.69          26.88          56.07         -9.202          10.28         -3.897          75.77          102.5          50.92          119.1
    0.6851              -38.09           11.7          26.88          56.06         -9.205          10.28          -3.92          75.75          102.4          50.92          119.1
    0.7308              -38.08          11.71          26.89          56.06         -9.208          10.28         -3.945          75.73          102.4          50.92          119.1
    0.7765              -38.07          11.72          26.89          56.05         -9.211          10.29         -3.972           75.7          102.4          50.92          119.1
    0.8222              -38.06          11.73           26.9          56.04         -9.215          10.29         -4.002          75.68          102.3          50.93          119.1
    0.8678              -38.06          11.74           26.9          56.04         -9.219          10.29         -4.035          75.65          102.3          50.93          119.1
    0.9135              -38.05          11.75          26.91          56.03         -9.223          10.29         -4.071          75.62          102.3          50.93          119.1
    0.9592              -38.03          11.76          26.92          56.02         -9.228           10.3          -4.11          75.58          102.2          50.93          119.1
     1.005              -38.02          11.78          26.93          56.01         -9.233           10.3         -4.154          75.54          102.2          50.93          119.0
     1.051              -38.01          11.79          26.94           56.0         -9.239          10.31         -4.202           75.5          102.1          50.93          119.0
     1.096               -38.0          11.81          26.95          55.99         -9.245          10.31         -4.256          75.45          102.1          50.93          119.0
     1.142              -37.98          11.83          26.96          55.98         -9.252          10.32         -4.316           75.4          102.0          50.93          119.0
     1.188              -37.96          11.86          26.97          55.96          -9.26          10.32         -4.383          75.34          102.0          50.94          119.0
     1.233              -37.94          11.88          26.98          55.95         -9.269          10.33         -4.458          75.27          101.9          50.94          118.9
     1.279              -37.92          11.91           27.0          55.93         -9.279          10.34         -4.544           75.2          101.8          50.94          118.9
     1.325              -37.89          11.94          27.02          55.91         -9.291          10.35         -4.641          75.11          101.7          50.94          118.9
      1.37              -37.86          11.98          27.04          55.88         -9.304          10.36         -4.751          75.02          101.6          50.95          118.8
     1.416              -37.83          12.02          27.06          55.86         -9.319          10.37         -4.878           74.9          101.5          50.95          118.8
     1.462              -37.79          12.07          27.09          55.83         -9.337          10.38         -5.025          74.77          101.3          50.96          118.8
     1.507              -37.74          12.13          27.12          55.79         -9.357           10.4         -5.195          74.62          101.1          50.96          118.7
     1.553              -37.68           12.2          27.16          55.75         -9.381          10.42         -5.395          74.45          100.9          50.97          118.6
     1.599              -37.62          12.28          27.21           55.7         -9.409          10.44          -5.63          74.24          100.7          50.97          118.6
     1.644              -37.54          12.37          27.26          55.64         -9.443          10.47         -5.909          73.99          100.4          50.98          118.5
      1.69              -37.45          12.49          27.32          55.57         -9.482           10.5         -6.243           73.7          100.1          50.99          118.4
     1.736              -37.34          12.62           27.4          55.48         -9.531          10.54         -6.648          73.34          99.64          51.01          118.2
     1.781              -37.21          12.79          27.49          55.37          -9.59          10.58         -7.143           72.9          99.14          51.02          118.1
     1.827              -37.04           13.0          27.61          55.24         -9.663          10.64         -7.753          72.36          98.51          51.04          117.9
     1.873              -36.83          13.25          27.75          55.08         -9.754          10.71         -8.515          71.69          97.74          51.06          117.6
     1.918              -36.57          13.58          27.93          54.87         -9.868           10.8         -9.474          70.84          96.76          51.09          117.3
     1.964              -36.24          13.99          28.16          54.61         -10.01          10.92         -10.69          69.77          95.51          51.13          116.9
      2.01              -35.82          14.52          28.45          54.28          -10.2          11.07         -12.25          68.39          93.92          51.17          116.4
     2.055              -35.27           15.2          28.83          53.85         -10.44          11.25         -14.26          66.62          91.87          51.23          115.7
     2.101              -34.57          16.06          29.31          53.31         -10.75           11.5         -16.81          64.36          89.26          51.31          114.9
     2.147               -33.7          17.15          29.92          52.62         -11.13           11.8         -20.03          61.52          85.98          51.41          113.8
     2.192              -32.63          18.48          30.66          51.78          -11.6          12.17         -23.95          58.05          81.97          51.53          112.5
     2.238              -31.39          20.02          31.52          50.81         -12.14           12.6         -28.49          54.04          77.33          51.66          111.0
     2.284              -30.05          21.69          32.44          49.76         -12.73          13.06         -33.41          49.69          72.31          51.81          109.4
     2.329              -28.71          23.35          33.37          48.71         -13.32          13.52         -38.33          45.35          67.29          51.96          107.8
     2.375              -27.47          24.89          34.23          47.73         -13.86          13.95         -42.87          41.33          62.65           52.1          106.3
     2.421              -26.41          26.22          34.97           46.9         -14.33          14.32         -46.79          37.87          58.65          52.21          105.0
     2.467              -25.53          27.31          35.57          46.21         -14.71          14.62         -50.01          35.03          55.36          52.31          103.9
     2.512              -24.83          28.17          36.06          45.66         -15.02          14.87         -52.56          32.77          52.75          52.39          103.0
     2.558              -24.29          28.85          36.43          45.23         -15.26          15.05         -54.57           31.0           50.7          52.45          102.4
     2.604              -23.86          29.38          36.73           44.9         -15.44           15.2         -56.13          29.62          49.11           52.5          101.9
     2.649              -23.53          29.79          36.96          44.64         -15.59          15.32         -57.35          28.54          47.86          52.53          101.5
     2.695              -23.27          30.12          37.14          44.43          -15.7          15.41          -58.3          27.69          46.89          52.56          101.2
